<svg width="81" height="76" viewBox="0 0 81 76" fill="none" xmlns="http://www.w3.org/2000/svg">
<path d="M13.5 12.6667H22.0881C22.827 12.6667 23.1964 12.6667 23.4659 12.8738C23.7353 13.0808 23.8305 13.4378 24.0207 14.1518L26.2086 22.3632C26.5891 23.7911 26.7793 24.5051 27.3182 24.9192C27.8572 25.3334 28.596 25.3334 30.0738 25.3334H33.75" stroke="#222222" stroke-width="2" stroke-linecap="round"/>
<path d="M60.75 53.8333H23.083C21.7932 53.8333 21.1484 53.8333 20.8496 53.41C20.5507 52.9868 20.7666 52.3791 21.1984 51.1638L22.6797 46.9943C23.1365 45.7085 23.3649 45.0656 23.8835 44.6994C24.4021 44.3333 25.0844 44.3333 26.4489 44.3333H47.25" stroke="#222222" stroke-width="2" stroke-linecap="round" stroke-linejoin="round"/>
<path d="M56.1745 44.3333H28.676C27.7064 44.3333 26.8765 43.6378 26.7069 42.6831L23.938 27.0957C23.7748 26.1767 24.4815 25.3333 25.4149 25.3333H65.834C66.5887 25.3333 67.0714 26.1375 66.7165 26.8036L57.9396 43.2739C57.5921 43.9259 56.9134 44.3333 56.1745 44.3333Z" fill="#222222" stroke="#222222" stroke-width="2" stroke-linecap="round"/>
<ellipse cx="57.375" cy="63.3334" rx="3.375" ry="3.16667" fill="#222222"/>
<ellipse cx="30.375" cy="63.3334" rx="3.375" ry="3.16667" fill="#222222"/>
</svg>
